HIERARCHY
ROOT joint_Root
{
	OFFSET 0.0 0.0 0.0
	CHANNELS 6 Xposition Yposition Zposition Zrotation Xrotation Yrotation 
	JOINT Hips
	{
		OFFSET -0.726466 93.3139 -2.00062
		CHANNELS 6 Xposition Yposition Zposition Zrotation Xrotation Yrotation 
		JOINT Spine
		{
			OFFSET 15.7357 0.0 0.0
			CHANNELS 6 Xposition Yposition Zposition Zrotation Xrotation Yrotation 
			JOINT Chest
			{
				OFFSET 8.98455 -0.406207 0.0
				CHANNELS 6 Xposition Yposition Zposition Zrotation Xrotation Yrotation 
				JOINT Neck
				{
					OFFSET 16.3773 0.0 0.0
					CHANNELS 6 Xposition Yposition Zposition Zrotation Xrotation Yrotation 
					JOINT Head
					{
						OFFSET 6.45672 0.0 0.0
						CHANNELS 6 Xposition Yposition Zposition Zrotation Xrotation Yrotation 
						End Site
						{
							OFFSET 0.0 0.0 0.0
						}
					}
				}
				JOINT Shoulder_L
				{
					OFFSET 12.9942 -0.242716 4.98039
					CHANNELS 6 Xposition Yposition Zposition Zrotation Xrotation Yrotation 
					JOINT UpperArm_L
					{
						OFFSET 5.34809 0.0 0.0
						CHANNELS 6 Xposition Yposition Zposition Zrotation Xrotation Yrotation 
						JOINT LowerArm_L
						{
							OFFSET 24.3286 1.87007e-05 0.0
							CHANNELS 6 Xposition Yposition Zposition Zrotation Xrotation Yrotation 
							JOINT Hand_L
							{
								OFFSET 22.2916 0.0 0.0
								CHANNELS 6 Xposition Yposition Zposition Zrotation Xrotation Yrotation 
								End Site
								{
									OFFSET 0.0 0.0 0.0
								}
							}
						}
					}
				}
				JOINT Shoulder_R
				{
					OFFSET 12.9945 -0.242716 -4.98039
					CHANNELS 6 Xposition Yposition Zposition Zrotation Xrotation Yrotation 
					JOINT UpperArm_R
					{
						OFFSET -5.34813 0.0 0.0
						CHANNELS 6 Xposition Yposition Zposition Zrotation Xrotation Yrotation 
						JOINT LowerArm_R
						{
							OFFSET -24.3289 0.000322201 0.0
							CHANNELS 6 Xposition Yposition Zposition Zrotation Xrotation Yrotation 
							JOINT Hand_R
							{
								OFFSET -22.2915 -0.000108084 0.0
								CHANNELS 6 Xposition Yposition Zposition Zrotation Xrotation Yrotation 
								End Site
								{
									OFFSET 0.0 0.0 0.0
								}
							}
						}
					}
				}
			}
		}
		JOINT UpperLeg_L
		{
			OFFSET -2.19248 -6.46944 0.0
			CHANNELS 6 Xposition Yposition Zposition Zrotation Xrotation Yrotation 
			JOINT LowerLeg_L
			{
				OFFSET 39.0811 0.0 -1.23785e-05
				CHANNELS 6 Xposition Yposition Zposition Zrotation Xrotation Yrotation 
				JOINT Foot_L
				{
					OFFSET 40.9854 0.0 -1.26872e-05
					CHANNELS 6 Xposition Yposition Zposition Zrotation Xrotation Yrotation 
					JOINT Toes_L
					{
						OFFSET 11.7543 0.0 0.0
						CHANNELS 6 Xposition Yposition Zposition Zrotation Xrotation Yrotation 
						End Site
						{
							OFFSET 0.0 0.0 0.0
						}
					}
				}
			}
		}
		JOINT UpperLeg_R
		{
			OFFSET -2.19251 6.46944 0.0
			CHANNELS 6 Xposition Yposition Zposition Zrotation Xrotation Yrotation 
			JOINT LowerLeg_R
			{
				OFFSET -39.0811 -0.00228153 -0.0401928
				CHANNELS 6 Xposition Yposition Zposition Zrotation Xrotation Yrotation 
				JOINT Foot_R
				{
					OFFSET -40.9854 0.0 0.0
					CHANNELS 6 Xposition Yposition Zposition Zrotation Xrotation Yrotation 
					JOINT Toes_R
					{
						OFFSET -11.7543 0.0 0.0
						CHANNELS 6 Xposition Yposition Zposition Zrotation Xrotation Yrotation 
						End Site
						{
							OFFSET 0.0 0.0 0.0
						}
					}
				}
			}
		}
	}
}
MOTION
Frames:	6
Frame Time:	0.0333333
0.000000 0.000000 0.000000 0.000000 0.000000 -0.000000 81.560700 87.263100 201.243000 -83.473000 53.011200 178.854000 15.735700 0.000005 -0.000001 68.538500 82.159300 -67.998800 8.984550 -0.406207 -0.000000 6.881570 -5.722610 1.423350 16.377300 -0.000001 -0.000001 8.496410 11.830100 -4.335880 6.456720 -0.000001 -0.000000 -1.831450 24.970700 4.460830 12.994200 -0.242716 4.980390 -87.524600 -6.367630 -68.704400 5.348090 -0.000007 -0.000001 -50.349800 27.827800 -26.451800 24.328600 0.000019 0.000005 9.529620 3.822060 -68.343200 22.291600 -0.000001 0.000005 8.083420 5.569510 -9.663190 12.994500 -0.242716 -4.980390 88.073100 3.977870 -64.127400 -5.348130 -0.000001 -0.000004 -62.730000 32.943200 7.274000 -24.328900 0.000322 -0.000009 5.294710 7.729780 -34.573100 -22.291500 -0.000108 -0.000004 -0.141486 5.565170 -9.442750 -2.192480 -6.469440 -0.000000 -176.453000 2.217570 10.866900 39.081100 -0.000007 -0.000012 0.025834 -0.049709 27.461100 40.985400 -0.000006 -0.000013 5.654470 -3.105670 -84.211400 11.754300 -0.000000 0.000003 -0.930423 -1.163870 -16.298000 -2.192510 6.469440 -0.000001 175.017000 13.145400 157.416000 -39.081100 -0.002282 -0.040193 -0.039908 0.171671 14.137300 -40.985400 0.000008 0.000006 -7.756600 5.224950 -59.414800 -11.754300 -0.000006 -0.000006 -0.027473 -0.205637 -24.991800
0.000000 0.000000 0.000000 0.000000 0.000000 -0.000000 85.671100 86.600400 200.534000 -81.384800 50.429700 177.091000 15.735700 0.000005 -0.000001 69.226600 82.159700 -68.019700 8.984550 -0.406207 -0.000000 6.979930 -5.550970 2.751540 16.377300 -0.000001 -0.000001 9.354940 11.354400 -4.665430 6.456720 -0.000001 -0.000000 -2.262920 24.364100 4.866850 12.994200 -0.242716 4.980390 -87.972700 -5.309080 -69.065800 5.348090 -0.000007 -0.000001 -50.970500 27.568300 -24.906100 24.328600 0.000019 0.000005 9.173250 3.859430 -67.372900 22.291600 -0.000001 0.000005 8.419380 5.572410 -9.812220 12.994500 -0.242716 -4.980390 87.723700 4.748340 -64.350300 -5.348130 -0.000001 -0.000004 -61.509600 34.206800 5.579400 -24.328900 0.000322 -0.000009 6.142350 8.754370 -35.268000 -22.291500 -0.000108 -0.000004 -0.113427 5.565160 -9.443340 -2.192480 -6.469440 -0.000000 -173.033000 3.446070 11.923500 39.081100 -0.000007 -0.000012 0.010263 -0.018574 28.921400 40.985400 -0.000006 -0.000013 4.898500 -1.433560 -83.583700 11.754300 -0.000000 0.000003 -2.469390 -2.998850 -19.058200 -2.192510 6.469440 -0.000001 175.723000 10.578300 153.780000 -39.081100 -0.002282 -0.040193 -0.072227 0.176481 23.173300 -40.985400 0.000008 0.000006 -9.123740 4.961860 -52.333700 -11.754300 -0.000006 -0.000006 -0.039970 -0.259990 -27.252900
0.000000 0.000000 0.000000 0.000000 0.000000 -0.000000 89.986100 86.055300 199.661000 -80.415300 47.419800 176.488000 15.735700 0.000005 -0.000001 70.376300 82.203200 -68.670700 8.984550 -0.406207 -0.000000 7.024510 -5.230150 3.730790 16.377300 -0.000001 -0.000001 9.516150 10.739600 -4.494070 6.456720 -0.000001 -0.000000 -1.800950 23.594000 4.569490 12.994200 -0.242716 4.980390 -88.347000 -4.392470 -69.353700 5.348090 -0.000007 -0.000001 -51.994100 28.126100 -23.270500 24.328600 0.000019 0.000005 9.522320 4.383630 -65.504500 22.291600 -0.000001 0.000005 8.500860 5.571310 -9.755250 12.994500 -0.242716 -4.980390 87.323900 5.542800 -64.176800 -5.348130 -0.000001 -0.000004 -60.588700 34.260000 4.017830 -24.328900 0.000322 -0.000009 5.945480 8.318680 -35.752100 -22.291500 -0.000108 -0.000004 0.150644 5.565590 -9.464600 -2.192480 -6.469440 -0.000000 -170.123000 4.811930 11.843900 39.081100 -0.000007 -0.000012 -0.011020 0.017418 32.322600 40.985400 -0.000006 -0.000013 4.683040 -0.174540 -81.134600 11.754300 -0.000000 0.000003 -1.827350 -2.003260 -22.583700 -2.192510 6.469440 -0.000001 177.051000 11.666100 152.178000 -39.081100 -0.002282 -0.040193 -0.034657 0.065968 29.916600 -40.985400 0.000008 0.000006 -7.927090 3.779870 -48.950400 -11.754300 -0.000006 -0.000006 -0.035588 -0.242019 -26.502900
0.000000 0.000000 0.000000 0.000000 0.000000 -0.000000 94.324800 85.727100 198.428000 -80.220300 45.216300 177.648000 15.735700 0.000005 -0.000001 73.609700 81.829000 -71.575300 8.984550 -0.406207 -0.000000 8.016210 -4.587330 4.387990 16.377300 -0.000001 -0.000001 8.971010 10.642300 -4.200550 6.456720 -0.000001 -0.000000 -1.198930 22.709900 3.961260 12.994200 -0.242716 4.980390 -88.394900 -4.202050 -69.071300 5.348090 -0.000007 -0.000001 -55.127900 28.652500 -20.796100 24.328600 0.000019 0.000005 11.208600 5.821380 -62.898300 22.291600 -0.000001 0.000005 8.417820 5.569280 -9.651580 12.994500 -0.242716 -4.980390 87.313800 5.688690 -64.670600 -5.348130 -0.000001 -0.000004 -60.302300 33.564100 1.462910 -24.328900 0.000322 -0.000009 5.328000 7.581560 -35.259900 -22.291500 -0.000108 -0.000004 0.429891 5.564990 -9.434570 -2.192480 -6.469440 -0.000000 -168.190000 5.525340 11.333800 39.081100 -0.000007 -0.000012 0.018719 -0.023530 38.500900 40.985400 -0.000006 -0.000013 5.409410 -0.014100 -76.552400 11.754300 -0.000000 0.000003 -0.054923 -0.314913 -29.564600 -2.192510 6.469440 -0.000001 177.710000 13.757900 152.618000 -39.081100 -0.002282 -0.040193 0.021582 -0.024044 37.270100 -40.985400 0.000008 0.000006 -6.711050 4.610330 -53.639800 -11.754300 -0.000006 -0.000006 -0.022173 -0.179042 -23.892400
0.000000 0.000000 0.000000 0.000000 0.000000 -0.000000 98.268100 85.842800 197.202000 -80.347500 43.340500 178.757000 15.735700 0.000005 -0.000001 77.202600 81.523600 -74.966700 8.984550 -0.406207 -0.000000 8.856260 -3.714820 4.757020 16.377300 -0.000001 -0.000001 8.669420 10.584200 -3.966550 6.456720 -0.000001 -0.000000 -1.025200 21.722700 3.797090 12.994200 -0.242716 4.980390 -88.293900 -4.401070 -68.786100 5.348090 -0.000007 -0.000001 -59.106500 29.033400 -17.817300 24.328600 0.000019 0.000005 12.704600 7.625560 -59.520500 22.291600 -0.000001 0.000005 8.017180 5.562460 -9.308170 12.994500 -0.242716 -4.980390 87.357400 5.832050 -65.570900 -5.348130 -0.000001 -0.000004 -59.556400 33.644700 -2.191260 -24.328900 0.000322 -0.000009 5.154430 7.535650 -34.527400 -22.291500 -0.000108 -0.000004 0.707755 5.564980 -9.434150 -2.192480 -6.469440 -0.000000 -166.275000 4.844400 7.836660 39.081100 -0.000007 -0.000012 0.091033 -0.084273 47.207200 40.985400 -0.000006 -0.000013 6.616400 0.776860 -67.073000 11.754300 -0.000000 0.000003 -0.123296 -0.499040 -37.533900 -2.192510 6.469440 -0.000001 178.254000 16.044800 154.405000 -39.081100 -0.002282 -0.040193 0.030417 -0.030576 41.596100 -40.985400 0.000008 0.000006 -4.197110 5.067080 -58.939900 -11.754300 -0.000006 -0.000006 -0.015413 -0.140402 -22.302100
0.000000 0.000000 0.000000 0.000000 0.000000 -0.000000 101.595000 86.303600 196.047000 -81.270900 40.963200 -179.952000 15.735700 0.000005 -0.000001 80.607200 81.378500 -78.333200 8.984550 -0.406207 -0.000000 9.313080 -2.767780 4.770500 16.377300 -0.000001 -0.000001 8.336510 10.050100 -3.508000 6.456720 -0.000001 -0.000000 -0.656501 20.302500 3.812300 12.994200 -0.242716 4.980390 -88.270600 -4.475080 -68.845500 5.348090 -0.000007 -0.000001 -62.416800 29.983600 -15.035500 24.328600 0.000019 0.000005 12.122600 8.479610 -55.529800 22.291600 -0.000001 0.000005 7.230270 5.560460 -9.211490 12.994500 -0.242716 -4.980390 87.306400 6.111030 -66.157300 -5.348130 -0.000001 -0.000004 -57.231200 34.943800 -6.553470 -24.328900 0.000322 -0.000009 5.229300 7.545560 -34.881200 -22.291500 -0.000108 -0.000004 0.940445 5.562950 -9.332750 -2.192480 -6.469440 -0.000000 -165.622000 4.762740 1.398850 39.081100 -0.000007 -0.000012 0.200084 -0.127686 57.454700 40.985400 -0.000006 -0.000013 6.492550 -0.499663 -55.590500 11.754300 -0.000000 0.000003 -0.048486 -0.292333 -28.612700 -2.192510 6.469440 -0.000001 177.860000 17.135100 157.175000 -39.081100 -0.002282 -0.040193 0.000310 0.003173 43.008000 -40.985400 0.000008 0.000006 -3.509800 3.904200 -62.610000 -11.754300 -0.000006 -0.000006 -0.012388 -0.120694 -21.493800
